<?xml version="1.0" ?><svg id="Capa_1" style="enable-background:new 0 0 512 512;" version="1.1" viewBox="0 0 512 512" xml:space="preserve" xmlns="http://www.w3.org/2000/svg" xmlns:xlink="http://www.w3.org/1999/xlink"><style type="text/css">
	.st0{fill:#232323;}
</style><g><path class="st0" d="M473,87.4H340.3v-37c0-26.9-21.8-48.7-48.7-48.7h-71.1c-26.9,0-48.7,21.8-48.7,48.7v37H39c-6.1,0-11,4.9-11,11   c0,6.1,4.9,11,11,11h51.1v326c0,42.1,34.3,76.3,76.3,76.3h184.1c42.1,0,76.3-34.2,76.3-76.3V233.1c0-6.1-4.9-11-11-11   c-6.1,0-11,4.9-11,11v202.3c0,30-24.4,54.4-54.4,54.4H166.5c-30,0-54.4-24.4-54.4-54.4v-326h292.8v51c0,6.1,4.9,11,11,11   c6.1,0,11-4.9,11-11v-51H473c6.1,0,11-4.9,11-11C484,92.3,479.1,87.4,473,87.4z M193.7,50.4c0-14.7,12-26.7,26.7-26.7h71.1   c14.7,0,26.7,12,26.7,26.7v37H193.7V50.4z"/><path class="st0" d="M256,306.9c-6.1,0-11,4.9-11,11v106.3c0,6.1,4.9,11,11,11c6.1,0,11-4.9,11-11V317.9   C267,311.8,262.1,306.9,256,306.9z"/><path class="st0" d="M267,160.4c0-6.1-4.9-11-11-11c-6.1,0-11,4.9-11,11v111.9c0,6.1,4.9,11,11,11c6.1,0,11-4.9,11-11V160.4z"/><path class="st0" d="M329.3,360c-6.1,0-11,4.9-11,11v17.9c0,6.1,4.9,11,11,11c6.1,0,11-4.9,11-11v-17.9   C340.3,364.9,335.3,360,329.3,360z"/><path class="st0" d="M340.3,195c0-6.1-4.9-11-11-11c-6.1,0-11,4.9-11,11v133.5c0,6.1,4.9,11,11,11c6.1,0,11-4.9,11-11V195z"/><path class="st0" d="M182.7,257.3c-6.1,0-11,4.9-11,11v120.6c0,6.1,4.9,11,11,11c6.1,0,11-4.9,11-11V268.3   C193.7,262.2,188.8,257.3,182.7,257.3z"/><path class="st0" d="M193.7,195c0-6.1-4.9-11-11-11c-6.1,0-11,4.9-11,11v27.1c0,6.1,4.9,11,11,11c6.1,0,11-4.9,11-11V195z"/></g></svg>